<svg id="visual" viewBox="0 0 960 300" preserveAspectRatio="none" xmlns="http://www.w3.org/2000/svg" xmlns:xlink="http://www.w3.org/1999/xlink" version="1.1"><path d="M0 212L14.5 208C29 204 58 196 87.2 199.7C116.3 203.3 145.7 218.7 174.8 231.2C204 243.7 233 253.3 262 254.5C291 255.7 320 248.3 349 238.3C378 228.3 407 215.7 436.2 208.8C465.3 202 494.7 201 523.8 205.5C553 210 582 220 611 219.8C640 219.7 669 209.3 698 213.8C727 218.3 756 237.7 785.2 239.5C814.3 241.3 843.7 225.7 872.8 216.7C902 207.7 931 205.3 945.5 204.2L960 203L960 0L945.5 0C931 0 902 0 872.8 0C843.7 0 814.3 0 785.2 0C756 0 727 0 698 0C669 0 640 0 611 0C582 0 553 0 523.8 0C494.7 0 465.3 0 436.2 0C407 0 378 0 349 0C320 0 291 0 262 0C233 0 204 0 174.8 0C145.7 0 116.3 0 87.2 0C58 0 29 0 14.5 0L0 0Z" fill="#050542"></path><path d="M0 172L14.5 176.2C29 180.3 58 188.7 87.2 185.8C116.3 183 145.7 169 174.8 173.2C204 177.3 233 199.7 262 199.7C291 199.7 320 177.3 349 165.3C378 153.3 407 151.7 436.2 160.7C465.3 169.7 494.7 189.3 523.8 195.3C553 201.3 582 193.7 611 194.2C640 194.7 669 203.3 698 204.2C727 205 756 198 785.2 188.7C814.3 179.3 843.7 167.7 872.8 170C902 172.3 931 188.7 945.5 196.8L960 205L960 0L945.5 0C931 0 902 0 872.8 0C843.7 0 814.3 0 785.2 0C756 0 727 0 698 0C669 0 640 0 611 0C582 0 553 0 523.8 0C494.7 0 465.3 0 436.2 0C407 0 378 0 349 0C320 0 291 0 262 0C233 0 204 0 174.8 0C145.7 0 116.3 0 87.2 0C58 0 29 0 14.5 0L0 0Z" fill="#003e78"></path><path d="M0 165L14.5 163.8C29 162.7 58 160.3 87.2 155C116.3 149.7 145.7 141.3 174.8 136.3C204 131.3 233 129.7 262 134.7C291 139.7 320 151.3 349 154.3C378 157.3 407 151.7 436.2 149.8C465.3 148 494.7 150 523.8 143.3C553 136.7 582 121.3 611 113.7C640 106 669 106 698 111.5C727 117 756 128 785.2 139C814.3 150 843.7 161 872.8 165.2C902 169.3 931 166.7 945.5 165.3L960 164L960 0L945.5 0C931 0 902 0 872.8 0C843.7 0 814.3 0 785.2 0C756 0 727 0 698 0C669 0 640 0 611 0C582 0 553 0 523.8 0C494.7 0 465.3 0 436.2 0C407 0 378 0 349 0C320 0 291 0 262 0C233 0 204 0 174.8 0C145.7 0 116.3 0 87.2 0C58 0 29 0 14.5 0L0 0Z" fill="#0076a5"></path><path d="M0 118L14.5 109.5C29 101 58 84 87.2 85.2C116.3 86.3 145.7 105.7 174.8 113.2C204 120.7 233 116.3 262 115.5C291 114.7 320 117.3 349 110.5C378 103.7 407 87.3 436.2 87.5C465.3 87.7 494.7 104.3 523.8 111.2C553 118 582 115 611 115C640 115 669 118 698 120.2C727 122.3 756 123.7 785.2 115.2C814.3 106.7 843.7 88.3 872.8 85.2C902 82 931 94 945.5 100L960 106L960 0L945.5 0C931 0 902 0 872.8 0C843.7 0 814.3 0 785.2 0C756 0 727 0 698 0C669 0 640 0 611 0C582 0 553 0 523.8 0C494.7 0 465.3 0 436.2 0C407 0 378 0 349 0C320 0 291 0 262 0C233 0 204 0 174.8 0C145.7 0 116.3 0 87.2 0C58 0 29 0 14.5 0L0 0Z" fill="#00afc1"></path><path d="M0 30L14.5 28.3C29 26.7 58 23.3 87.2 22.2C116.3 21 145.7 22 174.8 30.3C204 38.7 233 54.3 262 54.3C291 54.3 320 38.7 349 39.3C378 40 407 57 436.2 59.2C465.3 61.3 494.7 48.7 523.8 44.2C553 39.7 582 43.3 611 45C640 46.7 669 46.3 698 43.8C727 41.3 756 36.7 785.2 36.2C814.3 35.7 843.7 39.3 872.8 39.7C902 40 931 37 945.5 35.5L960 34L960 0L945.5 0C931 0 902 0 872.8 0C843.7 0 814.3 0 785.2 0C756 0 727 0 698 0C669 0 640 0 611 0C582 0 553 0 523.8 0C494.7 0 465.3 0 436.2 0C407 0 378 0 349 0C320 0 291 0 262 0C233 0 204 0 174.8 0C145.7 0 116.3 0 87.2 0C58 0 29 0 14.5 0L0 0Z" fill="#66e5bf"></path></svg>