<svg id="visual" viewBox="0 0 960 300" preserveAspectRatio="none" xmlns="http://www.w3.org/2000/svg" xmlns:xlink="http://www.w3.org/1999/xlink" version="1.1"><path d="M0 31L14.5 41.2C29 51.3 58 71.7 87.2 76.7C116.3 81.7 145.7 71.3 174.8 62C204 52.7 233 44.3 262 44.2C291 44 320 52 349 60.8C378 69.7 407 79.3 436.2 82.5C465.3 85.7 494.7 82.3 523.8 73.2C553 64 582 49 611 52.5C640 56 669 78 698 87.2C727 96.3 756 92.7 785.2 85C814.3 77.3 843.7 65.7 872.8 57.3C902 49 931 44 945.5 41.5L960 39L960 301L945.5 301C931 301 902 301 872.8 301C843.7 301 814.3 301 785.2 301C756 301 727 301 698 301C669 301 640 301 611 301C582 301 553 301 523.8 301C494.7 301 465.3 301 436.2 301C407 301 378 301 349 301C320 301 291 301 262 301C233 301 204 301 174.8 301C145.7 301 116.3 301 87.2 301C58 301 29 301 14.5 301L0 301Z" fill="#050542"></path><path d="M0 85L14.5 83.8C29 82.7 58 80.3 87.2 86.5C116.3 92.7 145.7 107.3 174.8 107.7C204 108 233 94 262 95.8C291 97.7 320 115.3 349 125.8C378 136.3 407 139.7 436.2 135.2C465.3 130.7 494.7 118.3 523.8 113.3C553 108.3 582 110.7 611 106C640 101.3 669 89.7 698 84.2C727 78.7 756 79.3 785.2 83.8C814.3 88.3 843.7 96.7 872.8 108.7C902 120.7 931 136.3 945.5 144.2L960 152L960 301L945.5 301C931 301 902 301 872.8 301C843.7 301 814.3 301 785.2 301C756 301 727 301 698 301C669 301 640 301 611 301C582 301 553 301 523.8 301C494.7 301 465.3 301 436.2 301C407 301 378 301 349 301C320 301 291 301 262 301C233 301 204 301 174.8 301C145.7 301 116.3 301 87.2 301C58 301 29 301 14.5 301L0 301Z" fill="#2c206b"></path><path d="M0 145L14.5 142.5C29 140 58 135 87.2 138.7C116.3 142.3 145.7 154.7 174.8 164.8C204 175 233 183 262 180.3C291 177.7 320 164.3 349 164.2C378 164 407 177 436.2 180.5C465.3 184 494.7 178 523.8 175.8C553 173.7 582 175.3 611 170.5C640 165.7 669 154.3 698 153.8C727 153.3 756 163.7 785.2 169.3C814.3 175 843.7 176 872.8 175C902 174 931 171 945.5 169.5L960 168L960 301L945.5 301C931 301 902 301 872.8 301C843.7 301 814.3 301 785.2 301C756 301 727 301 698 301C669 301 640 301 611 301C582 301 553 301 523.8 301C494.7 301 465.3 301 436.2 301C407 301 378 301 349 301C320 301 291 301 262 301C233 301 204 301 174.8 301C145.7 301 116.3 301 87.2 301C58 301 29 301 14.5 301L0 301Z" fill="#523b97"></path><path d="M0 228L14.5 225.7C29 223.3 58 218.7 87.2 210.5C116.3 202.3 145.7 190.7 174.8 185.5C204 180.3 233 181.7 262 190.7C291 199.7 320 216.3 349 222.2C378 228 407 223 436.2 213.8C465.3 204.7 494.7 191.3 523.8 194.3C553 197.3 582 216.7 611 224.7C640 232.7 669 229.3 698 221.2C727 213 756 200 785.2 193.7C814.3 187.3 843.7 187.7 872.8 192.7C902 197.7 931 207.3 945.5 212.2L960 217L960 301L945.5 301C931 301 902 301 872.8 301C843.7 301 814.3 301 785.2 301C756 301 727 301 698 301C669 301 640 301 611 301C582 301 553 301 523.8 301C494.7 301 465.3 301 436.2 301C407 301 378 301 349 301C320 301 291 301 262 301C233 301 204 301 174.8 301C145.7 301 116.3 301 87.2 301C58 301 29 301 14.5 301L0 301Z" fill="#7b57c5"></path><path d="M0 221L14.5 224C29 227 58 233 87.2 241.5C116.3 250 145.7 261 174.8 263.3C204 265.7 233 259.3 262 258.7C291 258 320 263 349 259.8C378 256.7 407 245.3 436.2 240.7C465.3 236 494.7 238 523.8 240.8C553 243.7 582 247.3 611 249.8C640 252.3 669 253.7 698 249.5C727 245.3 756 235.7 785.2 234.7C814.3 233.7 843.7 241.3 872.8 246.5C902 251.7 931 254.3 945.5 255.7L960 257L960 301L945.5 301C931 301 902 301 872.8 301C843.7 301 814.3 301 785.2 301C756 301 727 301 698 301C669 301 640 301 611 301C582 301 553 301 523.8 301C494.7 301 465.3 301 436.2 301C407 301 378 301 349 301C320 301 291 301 262 301C233 301 204 301 174.8 301C145.7 301 116.3 301 87.2 301C58 301 29 301 14.5 301L0 301Z" fill="#a675f5"></path></svg>